<svg width="360" height="195" viewBox="0 0 360 195" fill="none" xmlns="http://www.w3.org/2000/svg">
<g clip-path="url(#clip0_1218_2061)">
<rect width="360" height="195" fill="#F5EEDA"/>
<mask id="mask0_1218_2061" style="mask-type:luminance" maskUnits="userSpaceOnUse" x="0" y="-165" width="360" height="360">
<path d="M360 -165H0V195H360V-165Z" fill="white"/>
</mask>
<g mask="url(#mask0_1218_2061)">
<path d="M370.821 215.155L359.594 208.564C361.384 205.516 363.429 202.861 365.855 200.436C368.281 198.01 370.935 195.965 373.983 194.174L380.574 205.401C378.492 206.621 376.688 208.005 375.063 209.643C373.437 211.269 372.04 213.072 370.821 215.155Z" fill="#F0E2C1"/>
<path d="M342.106 213.847L329.711 209.859C330.27 208.132 330.778 206.379 331.286 204.639C333.724 196.295 336.493 186.846 344.38 178.96C352.267 171.073 361.715 168.304 370.06 165.866C371.799 165.358 373.552 164.85 375.279 164.291L379.267 176.686C377.426 177.283 375.571 177.817 373.717 178.363C365.881 180.661 359.112 182.643 353.587 188.167C348.05 193.705 346.069 200.461 343.783 208.297C343.237 210.151 342.691 212.006 342.106 213.847Z" fill="#F0E2C1"/>
<path d="M303.497 217.225L296.156 206.468C297.553 205.516 298.811 204.474 299.992 203.281C305.529 197.743 307.51 190.987 309.796 183.151C312.235 174.807 315.003 165.358 322.89 157.471C330.777 149.584 340.226 146.815 348.57 144.377C356.406 142.078 363.163 140.097 368.7 134.572C369.881 133.391 370.922 132.134 371.888 130.724L382.645 138.065C381.248 140.122 379.66 142.04 377.92 143.78C370.033 151.667 360.584 154.436 352.24 156.874C344.404 159.173 337.635 161.154 332.111 166.679C326.573 172.203 324.592 178.972 322.306 186.808C319.868 195.152 317.099 204.601 309.212 212.488C307.472 214.228 305.554 215.816 303.497 217.213V217.225Z" fill="#F0E2C1"/>
<path d="M240.097 215.955L230 207.738C230.851 206.684 231.765 205.668 232.718 204.716C240.605 196.829 250.054 194.06 258.398 191.622C266.234 189.323 272.99 187.342 278.527 181.817C284.052 176.28 286.033 169.523 288.332 161.687C290.77 153.343 293.552 143.894 301.426 136.008C309.313 128.121 318.762 125.352 327.106 122.914C334.942 120.615 341.698 118.634 347.236 113.109C352.773 107.572 354.754 100.815 357.04 92.9793C359.479 84.6352 362.247 75.1863 370.134 67.2995C371.087 66.3469 372.103 65.4325 373.157 64.5689L381.361 74.6783C380.65 75.2498 379.977 75.8594 379.342 76.5071C373.804 82.0444 371.823 88.8136 369.537 96.6369C367.099 104.981 364.33 114.43 356.443 122.317C348.556 130.204 339.107 132.972 330.763 135.411C322.927 137.709 316.171 139.691 310.634 145.215C305.096 150.753 303.115 157.509 300.829 165.345C298.391 173.689 295.622 183.138 287.735 191.025C279.848 198.912 270.399 201.68 262.055 204.119C254.219 206.418 247.45 208.399 241.925 213.923C241.278 214.558 240.668 215.244 240.097 215.955Z" fill="#F0E2C1"/>
<path d="M210.329 213.695L197.832 210.024L198.15 208.945C200.588 200.601 203.357 191.152 211.243 183.265C219.13 175.378 228.579 172.61 236.923 170.171C244.759 167.872 251.516 165.891 257.053 160.367C262.59 154.829 264.572 148.073 266.858 140.237C269.296 131.893 272.065 122.444 279.952 114.557C287.838 106.67 297.287 103.901 305.631 101.463C313.467 99.1643 320.224 97.183 325.761 91.6584C331.298 86.1338 333.28 79.3646 335.566 71.5286C338.004 63.1846 340.773 53.7356 348.66 45.8488C356.546 37.962 365.995 35.1933 374.339 32.7549L375.432 32.4374L379.102 44.9344L377.997 45.2519C370.161 47.5506 363.392 49.5319 357.867 55.0565C352.33 60.5937 350.349 67.3502 348.063 75.1863C345.624 83.5303 342.856 92.9793 334.969 100.866C327.082 108.753 317.633 111.522 309.289 113.96C301.453 116.259 294.684 118.24 289.159 123.765C283.622 129.302 281.641 136.058 279.355 143.894C276.916 152.238 274.148 161.687 266.261 169.574C258.374 177.461 248.925 180.23 240.581 182.668C232.745 184.967 225.988 186.948 220.451 192.473C214.914 198.01 212.933 204.766 210.647 212.602L210.329 213.695Z" fill="#F0E2C1"/>
<path d="M176.481 216.387L167.146 207.319C172.481 201.833 174.525 194.848 176.684 187.456C179.123 179.112 181.891 169.663 189.778 161.776C197.665 153.889 207.114 151.121 215.458 148.682C223.294 146.384 230.051 144.402 235.588 138.878C241.125 133.34 243.106 126.584 245.392 118.748C247.831 110.404 250.6 100.955 258.486 93.0681C266.373 85.1813 275.822 82.4127 284.166 79.9742C292.002 77.6755 298.759 75.6943 304.296 70.1697C309.833 64.6451 311.815 57.8759 314.101 50.0399C316.539 41.6958 319.32 32.2469 327.194 24.36C335.081 16.4732 344.53 13.7046 352.874 11.2661C360.266 9.10708 367.251 7.04966 372.737 1.72827L381.818 11.0629C374.02 18.645 364.736 21.3628 356.545 23.7631C348.709 26.0619 341.939 28.0431 336.415 33.5677C330.878 39.105 328.896 45.8615 326.61 53.6975C324.172 62.0415 321.403 71.4905 313.516 79.3773C305.63 87.2642 296.181 90.0328 287.837 92.4712C280.001 94.77 273.244 96.7512 267.707 102.276C262.169 107.813 260.188 114.57 257.902 122.406C255.464 130.75 252.695 140.199 244.808 148.085C236.921 155.972 227.472 158.741 219.128 161.179C211.292 163.478 204.536 165.459 198.999 170.984C193.461 176.521 191.48 183.278 189.194 191.114C186.794 199.305 184.076 208.589 176.494 216.387H176.481Z" fill="#F0E2C1"/>
<path d="M110.34 216.806L101.895 206.9C109.261 200.613 117.401 198.226 125.276 195.927C133.112 193.628 139.868 191.647 145.405 186.123C150.93 180.585 152.911 173.829 155.21 165.993C157.648 157.649 160.417 148.2 168.304 140.313C176.191 132.426 185.64 129.657 193.984 127.219C201.82 124.92 208.576 122.939 214.114 117.414C219.651 111.877 221.632 105.121 223.918 97.2846C226.357 88.9406 229.125 79.4916 237.012 71.6048C244.899 63.718 254.348 60.9493 262.692 58.5109C270.528 56.2122 277.284 54.2309 282.822 48.7063C288.359 43.1691 290.34 36.4125 292.626 28.5765C295.065 20.2325 297.833 10.7835 305.72 2.8967C313.607 -4.99013 323.056 -7.75877 331.4 -10.1972C339.236 -12.4959 346.005 -14.4772 351.53 -20.0018C357.067 -25.5264 359.048 -32.2956 361.334 -40.1316C363.646 -48.0057 366.021 -56.1465 372.307 -63.5127L382.213 -55.0543C377.73 -49.8091 375.838 -43.332 373.831 -36.4612C371.393 -28.1172 368.624 -18.6682 360.737 -10.7814C352.851 -2.89459 343.402 -0.125938 335.058 2.3125C327.222 4.61124 320.465 6.59247 314.928 12.1171C309.39 17.6544 307.409 24.4108 305.123 32.2469C302.685 40.5909 299.916 50.0399 292.029 57.9267C284.142 65.8135 274.694 68.5822 266.349 71.0206C258.513 73.3193 251.744 75.3006 246.22 80.8251C240.682 86.3497 238.701 93.119 236.415 100.955C233.977 109.299 231.208 118.748 223.321 126.635C215.434 134.522 205.985 137.29 197.641 139.729C189.805 142.027 183.049 144.009 177.512 149.533C171.974 155.071 169.993 161.827 167.707 169.663C165.269 178.007 162.5 187.456 154.613 195.343C146.726 203.23 137.277 205.998 128.933 208.437C122.075 210.443 115.585 212.349 110.34 216.819V216.806Z" fill="#F0E2C1"/>
<path d="M78.4491 213.746L65.9902 209.974C68.162 202.836 71.0576 194.619 78.1189 187.558C86.0058 179.671 95.4547 176.902 103.799 174.464C111.635 172.165 118.391 170.184 123.929 164.659C129.466 159.122 131.447 152.365 133.733 144.529C136.172 136.185 138.94 126.736 146.827 118.85C154.714 110.963 164.163 108.194 172.507 105.756C180.343 103.457 187.099 101.476 192.637 95.9511C198.174 90.4138 200.155 83.6573 202.441 75.8213C204.88 67.4772 207.648 58.0283 215.535 50.1415C223.422 42.2546 232.871 39.486 241.215 37.0475C249.051 34.7488 255.82 32.7676 261.345 27.243C266.882 21.7057 268.863 14.9492 271.149 7.11318C273.588 -1.23086 276.356 -10.6798 284.243 -18.5666C292.13 -26.4535 301.579 -29.2221 309.923 -31.6606C317.759 -33.9593 324.516 -35.9405 330.053 -41.4651C335.59 -47.0024 337.559 -53.7589 339.857 -61.5949C342.296 -69.939 345.065 -79.3879 352.951 -87.2747C360.013 -94.3361 368.23 -97.2444 375.367 -99.4034L379.139 -86.9445C373.246 -85.1665 367.087 -83.0075 362.146 -78.0671C356.609 -72.5298 354.628 -65.7733 352.342 -57.9373C349.903 -49.5932 347.135 -40.1443 339.248 -32.2575C331.361 -24.3706 321.912 -21.602 313.568 -19.1636C305.732 -16.8648 298.963 -14.8836 293.438 -9.35899C287.901 -3.8217 285.92 2.9348 283.634 10.7708C281.195 19.1149 278.427 28.5638 270.54 36.4506C262.653 44.3375 253.204 47.1061 244.86 49.5446C237.024 51.8433 230.267 53.8245 224.73 59.3491C219.206 64.8737 217.224 71.6429 214.926 79.479C212.487 87.823 209.718 97.2719 201.832 105.159C193.945 113.046 184.496 115.814 176.152 118.253C168.316 120.551 161.547 122.533 156.022 128.057C150.485 133.595 148.503 140.351 146.217 148.187C143.779 156.531 141.01 165.98 133.124 173.867C125.237 181.754 115.788 184.522 107.444 186.961C99.6077 189.26 92.8512 191.241 87.3139 196.765C82.3735 201.706 80.2272 207.865 78.4364 213.758L78.4491 213.746Z" fill="#F0E2C1"/>
<path d="M47.5627 215.549L36.8438 208.157C40.1458 203.369 41.7968 197.731 43.5495 191.749C45.9879 183.405 48.7565 173.956 56.6434 166.069C64.5302 158.182 73.9791 155.413 82.3232 152.975C90.1592 150.676 96.9284 148.695 102.453 143.17C107.99 137.646 109.972 130.877 112.258 123.041C114.696 114.697 117.465 105.248 125.351 97.3608C133.238 89.474 142.687 86.7054 151.031 84.2669C158.867 81.9682 165.637 79.987 171.161 74.4624C176.698 68.9378 178.68 62.1686 180.966 54.3325C183.404 45.9885 186.173 36.5396 194.06 28.6527C201.946 20.7659 211.395 17.9973 219.739 15.5588C227.575 13.2601 234.345 11.2788 239.869 5.75424C245.407 0.216965 247.388 -6.53955 249.674 -14.3756C252.112 -22.7196 254.881 -32.1686 262.768 -40.0554C270.655 -47.9422 280.103 -50.7109 288.448 -53.1493C296.284 -55.448 303.04 -57.4293 308.577 -62.9539C314.115 -68.4911 316.096 -75.2477 318.382 -83.0837C320.82 -91.4277 323.589 -100.877 331.476 -108.763C339.363 -116.65 348.812 -119.419 357.156 -121.857C363.125 -123.61 368.776 -125.261 373.564 -128.563L380.956 -117.844C374.441 -113.348 367.519 -111.316 360.813 -109.36C352.977 -107.062 346.221 -105.08 340.683 -99.5558C335.146 -94.0186 333.165 -87.2621 330.879 -79.426C328.44 -71.082 325.672 -61.633 317.785 -53.7462C309.898 -45.8594 300.449 -43.0907 292.105 -40.6523C284.269 -38.3536 277.513 -36.3723 271.975 -30.8477C266.438 -25.3232 264.457 -18.5539 262.171 -10.7179C259.732 -2.37387 256.964 7.07507 249.077 14.9619C241.19 22.8487 231.741 25.6174 223.397 28.0558C215.561 30.3545 208.805 32.3358 203.267 37.8604C197.73 43.3977 195.749 50.1542 193.463 57.9902C191.024 66.3342 188.256 75.7832 180.369 83.67C172.482 91.5568 163.033 94.3255 154.689 96.7639C146.853 99.0627 140.096 101.044 134.559 106.568C129.022 112.106 127.041 118.862 124.755 126.698C122.316 135.042 119.547 144.491 111.661 152.378C103.774 160.265 94.3249 163.034 85.9808 165.472C78.1448 167.771 71.3756 169.752 65.851 175.277C60.3137 180.814 58.3325 187.57 56.0465 195.406C54.0906 202.099 52.0586 209.034 47.5627 215.549Z" fill="#F0E2C1"/>
<path d="M-9.42424 214.292L-13.4121 201.896C-11.5706 201.299 -9.71635 200.753 -7.86212 200.207C-0.0260925 197.921 6.73042 195.927 12.2677 190.403C17.805 184.878 19.7862 178.109 22.0723 170.273C24.5107 161.929 27.2793 152.48 35.1662 144.593C43.053 136.706 52.502 133.937 60.846 131.499C68.682 129.213 75.4385 127.219 80.9758 121.694C86.5004 116.157 88.4816 109.401 90.7804 101.565C93.2188 93.2206 95.9874 83.7716 103.874 75.8848C111.761 67.9979 121.21 65.2293 129.554 62.7909C137.39 60.4921 144.147 58.5109 149.684 52.9863C155.221 47.449 157.202 40.6925 159.488 32.8565C161.927 24.5124 164.696 15.0635 172.582 7.17668C180.469 -0.710159 189.918 -3.47882 198.262 -5.91725C206.098 -8.21599 212.855 -10.1972 218.392 -15.7218C223.917 -21.2591 225.911 -28.0156 228.197 -35.8516C230.635 -44.1957 233.404 -53.6446 241.29 -61.5314C249.177 -69.4183 258.626 -72.1869 266.97 -74.6254C274.806 -76.9241 281.563 -78.9053 287.1 -84.4299C292.637 -89.9672 294.619 -96.7237 296.905 -104.56C299.343 -112.904 302.112 -122.353 309.999 -130.24C317.885 -138.126 327.334 -140.895 335.678 -143.333C343.514 -145.632 350.271 -147.613 355.808 -153.138C361.346 -158.675 363.327 -165.432 365.613 -173.268C366.159 -175.122 366.705 -176.976 367.289 -178.818L379.685 -174.83C379.126 -173.103 378.618 -171.35 378.11 -169.61C375.671 -161.266 372.903 -151.817 365.016 -143.93C357.129 -136.044 347.68 -133.275 339.336 -130.836C331.5 -128.538 324.744 -126.556 319.206 -121.032C313.669 -115.495 311.688 -108.738 309.402 -100.902C306.963 -92.558 304.195 -83.1091 296.308 -75.2223C288.421 -67.3354 278.972 -64.5668 270.628 -62.1284C262.792 -59.8296 256.035 -57.8484 250.498 -52.3238C244.961 -46.7865 242.98 -40.03 240.694 -32.194C238.255 -23.8499 235.487 -14.401 227.6 -6.51416C219.713 1.37267 210.264 4.14133 201.92 6.57976C194.084 8.87849 187.315 10.8597 181.79 16.3843C176.253 21.9216 174.272 28.6781 171.985 36.5141C169.547 44.8582 166.766 54.3071 158.892 62.194C151.005 70.0808 141.556 72.8494 133.212 75.2879C125.376 77.5866 118.619 79.5678 113.082 85.0924C107.545 90.6297 105.563 97.3862 103.277 105.222C100.839 113.566 98.0703 123.015 90.1835 130.902C82.2966 138.789 72.8477 141.558 64.5036 143.996C56.6676 146.295 49.9111 148.276 44.3738 153.801C38.8365 159.338 36.8553 166.094 34.5693 173.93C32.1308 182.274 29.3622 191.723 21.4754 199.61C13.5885 207.497 4.13957 210.266 -4.20446 212.704C-5.94439 213.212 -7.69702 213.72 -9.42424 214.279V214.292Z" fill="#F0E2C1"/>
<path d="M-8.11562 184.408L-14.707 173.181C-12.6242 171.962 -10.8208 170.578 -9.19514 168.939C-3.65785 163.402 -1.67662 156.645 0.609415 148.809C3.04785 140.465 5.8165 131.016 13.7033 123.13C21.5902 115.243 31.0391 112.474 39.3831 110.036C47.2192 107.737 53.9884 105.756 59.513 100.231C65.0503 94.6938 67.0315 87.9373 69.3175 80.1013C71.756 71.7572 74.5246 62.3083 82.4114 54.4214C90.2983 46.5346 99.7472 43.766 108.091 41.3275C115.927 39.0288 122.684 37.0475 128.221 31.523C133.758 25.9857 135.727 19.2292 138.026 11.3931C140.464 3.04909 143.233 -6.39986 151.12 -14.2867C159.006 -22.1735 168.455 -24.9421 176.799 -27.3806C184.635 -29.6793 191.392 -31.6606 196.929 -37.1852C202.466 -42.7224 204.448 -49.4789 206.734 -57.315C209.172 -65.659 211.941 -75.108 219.828 -82.9948C227.714 -90.8816 237.163 -93.6503 245.507 -96.0887C253.344 -98.3874 260.1 -100.369 265.637 -105.893C271.175 -111.431 273.156 -118.187 275.442 -126.023C277.88 -134.367 280.649 -143.816 288.536 -151.703C296.423 -159.59 305.872 -162.358 314.216 -164.797C322.052 -167.096 328.808 -169.077 334.345 -174.601C335.971 -176.24 337.368 -178.043 338.587 -180.113L349.814 -173.522C348.023 -170.486 345.979 -167.819 343.553 -165.394C335.666 -157.507 326.217 -154.738 317.873 -152.3C310.037 -150.001 303.281 -148.02 297.743 -142.495C292.219 -136.958 290.238 -130.201 287.939 -122.365C285.5 -114.021 282.719 -104.572 274.845 -96.6856C266.958 -88.7988 257.509 -86.0301 249.165 -83.5917C241.329 -81.293 234.573 -79.3117 229.035 -73.7871C223.498 -68.2498 221.517 -61.4933 219.231 -53.6573C216.792 -45.3133 214.024 -35.8643 206.137 -27.9775C198.25 -20.0907 188.801 -17.322 180.457 -14.8836C172.621 -12.5849 165.864 -10.6036 160.327 -5.07904C154.79 0.458252 152.809 7.21477 150.523 15.0508C148.084 23.3948 145.316 32.8438 137.429 40.7306C129.542 48.6174 120.093 51.3861 111.749 53.8245C103.913 56.1233 97.1437 58.1045 91.6191 63.6291C86.0818 69.1664 84.1006 75.9229 81.8145 83.7589C79.3761 92.1029 76.6074 101.552 68.7206 109.439C60.8338 117.326 51.3848 120.094 43.0408 122.533C35.2048 124.831 28.4483 126.813 22.911 132.337C17.3737 137.874 15.3925 144.631 13.1064 152.467C10.668 160.811 7.89933 170.26 0.0125065 178.147C-2.41323 180.573 -5.06758 182.617 -8.11562 184.408Z" fill="#F0E2C1"/>
<path d="M-5.35861 121.72L-17.4746 116.957C-14.9981 110.671 -11.9119 105.806 -7.77165 101.654C0.115175 93.7667 9.56413 90.998 17.9082 88.5596C25.7442 86.2608 32.5007 84.2796 38.038 78.755C43.5753 73.2177 45.5565 66.4612 47.8425 58.6252C50.281 50.2812 53.0496 40.8322 60.9365 32.9454C68.8233 25.0586 78.2722 22.2899 86.6163 19.8515C94.4523 17.5527 101.209 15.5715 106.746 10.0469C112.271 4.50963 114.252 -2.24689 116.551 -10.0829C118.989 -18.4269 121.758 -27.8759 129.645 -35.7627C137.531 -43.6496 146.98 -46.4182 155.324 -48.8566C163.16 -51.1554 169.917 -53.1366 175.454 -58.6612C180.991 -64.1985 182.973 -70.955 185.259 -78.791C187.697 -87.1351 190.466 -96.584 198.353 -104.471C206.239 -112.358 215.688 -115.126 224.032 -117.565C231.868 -119.863 238.638 -121.845 244.162 -127.369C249.7 -132.907 251.681 -139.663 253.967 -147.499C256.405 -155.843 259.174 -165.292 267.061 -173.179C271.201 -177.319 276.065 -180.405 282.365 -182.882L287.127 -170.766C282.492 -168.937 279.139 -166.842 276.268 -163.971C270.731 -158.447 268.75 -151.677 266.464 -143.841C264.025 -135.497 261.257 -126.048 253.37 -118.162C245.483 -110.275 236.034 -107.506 227.69 -105.068C219.854 -102.769 213.085 -100.788 207.56 -95.2632C202.023 -89.7259 200.042 -82.9694 197.756 -75.1334C195.317 -66.7893 192.549 -57.3404 184.662 -49.4535C176.775 -41.5667 167.326 -38.7981 158.982 -36.3596C151.146 -34.0609 144.39 -32.0797 138.852 -26.5551C133.315 -21.0178 131.334 -14.2613 129.048 -6.42525C126.609 1.91879 123.841 11.3677 115.954 19.2546C108.067 27.1414 98.618 29.91 90.2739 32.3485C82.4379 34.6472 75.6687 36.6284 70.1441 42.153C64.6068 47.6903 62.6256 54.4468 60.3395 62.2829C57.9011 70.6269 55.1325 80.0758 47.2456 87.9627C39.3588 95.8495 29.9099 98.6182 21.5658 101.057C13.7298 103.355 6.97329 105.337 1.436 110.861C-1.44695 113.744 -3.54248 117.084 -5.35861 121.72Z" fill="#F0E2C1"/>
<path d="M-9.04212 82.5524L-13.7793 70.4237C-10.3502 69.0775 -6.89579 68.0742 -3.55563 67.0962C4.2804 64.7975 11.0369 62.8163 16.5742 57.2917C22.1115 51.7544 24.0927 44.9979 26.3788 37.1618C28.8172 28.8178 31.5858 19.3689 39.4727 11.4821C47.3595 3.59523 56.8084 0.826569 65.1525 -1.61188C72.9885 -3.91061 79.745 -5.89183 85.2823 -11.4164C90.8196 -16.9537 92.8008 -23.7102 95.0869 -31.5462C97.5253 -39.8903 100.294 -49.3392 108.181 -57.2261C116.068 -65.1129 125.517 -67.8815 133.861 -70.32C141.697 -72.6187 148.466 -74.5999 153.99 -80.1245C159.528 -85.6491 161.509 -92.4183 163.795 -100.254C166.233 -108.598 169.015 -118.047 176.889 -125.934C184.776 -133.821 194.225 -136.59 202.569 -139.028C210.405 -141.327 217.161 -143.308 222.699 -148.833C228.236 -154.37 230.217 -161.126 232.503 -168.962C233.481 -172.303 234.497 -175.744 235.831 -179.186L247.959 -174.449C246.829 -171.553 245.94 -168.518 245 -165.305C242.562 -156.961 239.793 -147.512 231.906 -139.625C224.019 -131.738 214.57 -128.97 206.226 -126.531C198.39 -124.232 191.621 -122.251 186.097 -116.727C180.559 -111.189 178.578 -104.433 176.292 -96.5967C173.854 -88.2527 171.085 -78.8037 163.198 -70.9169C155.311 -63.0301 145.862 -60.2614 137.518 -57.823C129.682 -55.5242 122.926 -53.543 117.388 -48.0184C111.851 -42.4811 109.883 -35.7246 107.584 -27.8886C105.145 -19.5446 102.377 -10.0956 94.49 -2.20879C86.6031 5.67804 77.1542 8.4467 68.8101 10.8851C60.9741 13.1839 54.2176 15.1651 48.6803 20.6897C43.143 26.227 41.1745 32.9835 38.8758 40.8195C36.4373 49.1635 33.656 58.6125 25.7818 66.4993C17.895 74.3862 8.44606 77.1548 0.102027 79.5932C-3.11112 80.5331 -6.14647 81.4221 -9.04212 82.5524Z" fill="#F0E2C1"/>
<path d="M-8.78802 53.7991L-14.0332 41.8863C-10.2993 40.248 -7.4037 38.3176 -4.90176 35.8029C0.635534 30.2656 2.61677 23.5091 4.9028 15.6731C7.34124 7.32906 10.1099 -2.11989 17.9967 -10.0067C25.8835 -17.8935 35.3325 -20.6622 43.6765 -23.1006C51.5126 -25.3994 58.2691 -27.3806 63.8064 -32.9052C69.3436 -38.4298 71.3249 -45.199 73.6109 -53.035C76.0494 -61.379 78.818 -70.828 86.7048 -78.7148C94.5917 -86.6017 104.041 -89.3703 112.385 -91.8087C120.221 -94.1075 126.977 -96.0887 132.514 -101.613C138.039 -107.151 140.02 -113.907 142.319 -121.743C144.757 -130.087 147.526 -139.536 155.413 -147.423C163.3 -155.31 172.749 -158.078 181.093 -160.517C188.929 -162.816 195.698 -164.797 201.223 -170.321C203.725 -172.823 205.655 -175.732 207.306 -179.453L219.219 -174.195C216.933 -169.013 214.062 -164.733 210.43 -161.101C202.543 -153.214 193.094 -150.446 184.75 -148.007C176.914 -145.708 170.158 -143.727 164.621 -138.203C159.083 -132.665 157.102 -125.909 154.816 -118.073C152.378 -109.729 149.609 -100.28 141.722 -92.393C133.835 -84.5061 124.386 -81.7375 116.042 -79.299C108.206 -77.0003 101.45 -75.0191 95.9125 -69.4945C90.3752 -63.9572 88.394 -57.2007 86.1079 -49.3647C83.6695 -41.0206 80.9008 -31.5717 73.014 -23.6848C65.1272 -15.798 55.6782 -13.0294 47.3342 -10.5909C39.4982 -8.29218 32.729 -6.31094 27.2044 -0.786362C21.6671 4.75093 19.6858 11.5074 17.3998 19.3435C14.9614 27.6875 12.1927 37.1364 4.30589 45.0233C0.673635 48.6555 -3.60633 51.5258 -8.78802 53.8118V53.7991Z" fill="#F0E2C1"/>
<path d="M-5.19442 1.62669L-17.6406 -2.18338C-17.2723 -3.3772 -16.9167 -4.58371 -16.5738 -5.79022C-14.1354 -14.1343 -11.354 -23.5832 -3.4799 -31.47C4.40693 -39.3569 13.8559 -42.1255 22.1999 -44.564C30.0359 -46.8627 36.8052 -48.8439 42.3297 -54.3685C47.867 -59.9058 49.8483 -66.6623 52.1343 -74.4983C54.5727 -82.8424 57.3414 -92.2913 65.2282 -100.178C73.115 -108.065 82.564 -110.834 90.908 -113.272C98.7441 -115.571 105.501 -117.552 111.038 -123.077C116.575 -128.614 118.544 -135.37 120.842 -143.206C123.281 -151.55 126.049 -160.999 133.936 -168.886C141.823 -176.773 151.272 -179.542 159.616 -181.98C160.823 -182.336 162.016 -182.679 163.223 -183.047L167.033 -170.601C165.788 -170.22 164.531 -169.851 163.274 -169.483C155.438 -167.184 148.681 -165.203 143.144 -159.679C137.607 -154.141 135.638 -147.385 133.339 -139.549C130.901 -131.205 128.132 -121.756 120.245 -113.869C112.359 -105.982 102.91 -103.214 94.5657 -100.775C86.7297 -98.4763 79.9604 -96.4951 74.4359 -90.9705C68.8986 -85.4459 66.93 -78.6767 64.6313 -70.8407C62.1929 -62.4967 59.4115 -53.0477 51.5374 -45.1609C43.6506 -37.274 34.2016 -34.5054 25.8576 -32.067C18.0215 -29.7682 11.265 -27.787 5.72775 -22.2624C0.190464 -16.7251 -1.79077 -9.9686 -4.07681 -2.13257C-4.44511 -0.875244 -4.81342 0.36937 -5.19442 1.62669Z" fill="#F0E2C1"/>
</g>
</g>
<defs>
<clipPath id="clip0_1218_2061">
<rect width="360" height="195" fill="white"/>
</clipPath>
</defs>
</svg>
